<svg aria-hidden="true" style="width:0;height:0;position:absolute;overflow:hidden" xmlns="http://www.w3.org/2000/svg"><defs><symbol id="card-btn-close" viewBox="0 0 32 32"><path stroke-width="2.133" d="m8.533 8.533 14.933 14.933m-14.933.001L23.466 8.534"/></symbol><symbol id="footer-heart" viewBox="0 0 32 32"><path d="m16 30.583-2.24-2.24C5.44 20.983 0 16.023 0 9.943c0-4.96 3.84-8.8 8.8-8.8 2.72 0 5.44 1.28 7.2 3.36 1.76-2.08 4.48-3.36 7.2-3.36 4.96 0 8.8 3.84 8.8 8.8 0 6.08-5.44 11.04-13.76 18.4L16 30.583z"/></symbol><symbol id="header-autorization" viewBox="0 0 32 32"><path d="M16 2c3.243 0 5.881 2.615 5.881 5.83S19.243 13.66 16 13.66c-3.243 0-5.881-2.615-5.881-5.83S12.757 2 16 2zm0-2c-4.353 0-7.881 3.506-7.881 7.83s3.529 7.83 7.881 7.83 7.881-3.506 7.881-7.83S20.352 0 16 0zm4.935 19.444c.593.012 5.135.25 5.135 4.596V30H5.93v-5.96c0-4.268 4.289-4.578 5.116-4.596h9.889zm.019-2h-9.907s-7.116.079-7.116 6.596V32h24.14v-7.96c0-6.478-7.116-6.596-7.116-6.596z"/></symbol><symbol id="header-logo" viewBox="0 0 32 32"><path stroke-linejoin="round" stroke-linecap="round" stroke-width="2.667" d="M26.427 2.667H5.574a2.907 2.907 0 0 0-2.907 2.907v20.853a2.907 2.907 0 0 0 2.907 2.907h20.853a2.907 2.907 0 0 0 2.907-2.907V5.574a2.907 2.907 0 0 0-2.907-2.907zm-17.094 0v26.667M22.667 2.667v26.667M2.667 16h26.667M2.667 9.333h6.667M2.667 22.667h6.667m13.333 0h6.667M22.667 9.333h6.667"/></symbol><symbol id="header-search" viewBox="0 0 32 32"><path stroke-linejoin="round" stroke-linecap="round" stroke-width="2.667" d="M14.667 25.333c5.891 0 10.667-4.776 10.667-10.667S20.558 3.999 14.667 3.999 4 8.775 4 14.666s4.776 10.667 10.667 10.667zM28 28l-5.8-5.8"/></symbol><symbol id="pag-btn-left" viewBox="0 0 32 32"><path stroke-linejoin="round" stroke-linecap="round" stroke-width="2.666" d="M25.334 16H6.666M16 25.334 6.666 16 16 6.666"/></symbol><symbol id="pag-btn-right" viewBox="0 0 32 32"><path stroke-linejoin="round" stroke-linecap="round" stroke-width="2.666" d="M6.666 16h18.668M16 25.334 25.334 16 16 6.666"/></symbol><symbol id="icon-autorization" viewBox="0 0 32 32"><path d="M16 .001C7.164.001 0 7.164 0 16s7.164 15.999 16 15.999c8.837 0 16-7.163 16-15.999S24.837.001 16 .001zm0 4.784a5.292 5.292 0 1 1 .001 10.585A5.292 5.292 0 0 1 16 4.785zm-.004 23.031a11.738 11.738 0 0 1-7.646-2.82 2.255 2.255 0 0 1-.791-1.714c0-2.964 2.399-5.336 5.363-5.336h6.158a5.33 5.33 0 0 1 5.355 5.336c0 .659-.288 1.285-.791 1.713a11.74 11.74 0 0 1-7.647 2.82z"/></symbol><symbol id="up" viewBox="0 0 32 32"><path style="fill:currentColor" d="M0 16c0 8.837 7.163 16 16 16s16-7.163 16-16S24.837 0 16 0 0 7.163 0 16zm29 0c0 7.18-5.82 13-13 13S3 23.18 3 16 8.82 3 16 3s13 5.82 13 13z"/><path style="fill:currentColor" d="m22.086 20.914 2.829-2.829-8.914-8.914-8.914 8.914 2.828 2.828 6.086-6.086z"/></symbol><symbol id="icon-sun" viewBox="0 0 32 32"><path d="M16 26a2 2 0 0 1 2 2v2a2 2 0 1 1-4 0v-2a2 2 0 0 1 2-2zm0-20a2 2 0 0 1-2-2V2a2 2 0 1 1 4 0v2a2 2 0 0 1-2 2zm14 8a2 2 0 1 1 0 4h-2a2 2 0 1 1 0-4h2zM6 16a2 2 0 0 1-2 2H2a2 2 0 1 1 0-4h2a2 2 0 0 1 2 2zm19.899 7.071 1.414 1.414a2 2 0 1 1-2.828 2.828l-1.414-1.414a2 2 0 1 1 2.828-2.828zM6.101 8.929 4.687 7.515a2 2 0 1 1 2.828-2.828l1.414 1.414a2 2 0 1 1-2.828 2.828zm19.798 0a2 2 0 1 1-2.828-2.828l1.414-1.414a2 2 0 1 1 2.828 2.828l-1.414 1.414zM6.101 23.071a2 2 0 1 1 2.828 2.828l-1.414 1.414a2 2 0 1 1-2.828-2.828l1.414-1.414zM16 8a8 8 0 1 0 0 16 8 8 0 0 0 0-16zm0 13a5 5 0 1 1 .001-10.001A5 5 0 0 1 16 21z"/></symbol><symbol id="icon-moon" viewBox="0 0 32 32"><path fill="#a5a5a4" style="fill:var(--color1,#a5a5a4)" d="M16.571 16c0-6.81 4.278-12.635 10.286-14.941A15.902 15.902 0 0 0 21.143 0c-8.822 0-16 7.178-16 16s7.178 16 16 16c2.013 0 3.938-.377 5.714-1.059C20.849 28.635 16.571 22.81 16.571 16z"/></symbol><symbol id="icon-autorization-check" viewBox="0 0 32 32"><path d="M16 0C7.164 0 0 7.164 0 16s7.164 16 16 16 16-7.164 16-16S24.836 0 16 0zm-2.48 23.383L6.158 16.02l2.828-2.828 4.533 4.535 9.617-9.617 2.828 2.828L13.52 23.383z"/></symbol><symbol id="icon-logout" viewBox="0 0 32 32"><path d="M12 16H2v-4h10V8l6 6-6 6zM32 0v26l-12 6v-6H8v-8h2v6h10V6l8-4H10v8H8V0z"/></symbol></defs></svg>