<svg aria-hidden="true" style="position: absolute; width: 0; height: 0; overflow: hidden;" version="1.1" xmlns="http://www.w3.org/2000/svg" xmlns:xlink="http://www.w3.org/1999/xlink">
<defs>
<symbol id="card-btn-close" viewBox="0 0 32 32">
<path stroke-linejoin="miter" stroke-linecap="butt" stroke-miterlimit="4" stroke-width="2.1333" d="M8.533 8.533l14.933 14.933M8.533 23.467l14.933-14.933"></path>
</symbol>
<symbol id="footer-heart" viewBox="0 0 32 32">
<path d="M16 30.583l-2.24-2.24c-8.32-7.36-13.76-12.32-13.76-18.4 0-4.96 3.84-8.8 8.8-8.8 2.72 0 5.44 1.28 7.2 3.36 1.76-2.080 4.48-3.36 7.2-3.36 4.96 0 8.8 3.84 8.8 8.8 0 6.080-5.44 11.040-13.76 18.4l-2.24 2.24z"></path>
</symbol>
<symbol id="header-autorization" viewBox="0 0 32 32">
<path d="M16 2c3.243 0 5.881 2.615 5.881 5.83s-2.638 5.83-5.881 5.83c-3.243 0-5.881-2.615-5.881-5.83s2.638-5.83 5.881-5.83zM16 0c-4.353 0-7.881 3.506-7.881 7.83s3.529 7.83 7.881 7.83 7.881-3.506 7.881-7.83-3.529-7.83-7.881-7.83zM20.935 19.444c0.593 0.012 5.135 0.25 5.135 4.596v5.96h-20.14v-5.96c0-4.268 4.289-4.578 5.116-4.596h9.889zM20.954 17.444h-9.907s-7.116 0.079-7.116 6.596v7.96h24.14v-7.96c0-6.478-7.116-6.596-7.116-6.596z"></path>
</symbol>
<symbol id="header-logo" viewBox="0 0 32 32">
<path stroke-linejoin="round" stroke-linecap="round" stroke-miterlimit="4" stroke-width="2.6667" d="M26.427 2.667h-20.853c-1.605 0-2.907 1.301-2.907 2.907v0 20.853c0 1.605 1.301 2.907 2.907 2.907v0h20.853c1.605 0 2.907-1.301 2.907-2.907v0-20.853c0-1.605-1.301-2.907-2.907-2.907v0zM9.333 2.667v26.667M22.667 2.667v26.667M2.667 16h26.667M2.667 9.333h6.667M2.667 22.667h6.667M22.667 22.667h6.667M22.667 9.333h6.667"></path>
</symbol>
<symbol id="header-search" viewBox="0 0 32 32">
<path stroke-linejoin="round" stroke-linecap="round" stroke-miterlimit="4" stroke-width="2.6667" d="M14.667 25.333c5.891 0 10.667-4.776 10.667-10.667s-4.776-10.667-10.667-10.667v0c-5.891 0-10.667 4.776-10.667 10.667s4.776 10.667 10.667 10.667v0zM28 28l-5.8-5.8"></path>
</symbol>
<symbol id="pag-btn-left" viewBox="0 0 32 32">
<path stroke-linejoin="round" stroke-linecap="round" stroke-miterlimit="4" stroke-width="2.666" d="M25.334 16h-18.668M16 25.334l-9.334-9.334 9.334-9.334"></path>
</symbol>
<symbol id="pag-btn-right" viewBox="0 0 32 32">
<path stroke-linejoin="round" stroke-linecap="round" stroke-miterlimit="4" stroke-width="2.666" d="M6.666 16h18.668M16 25.334l9.334-9.334-9.334-9.334"></path>
</symbol>

<symbol id="icon-autorization" viewBox="0 0 32 32" >
<path d="M16 0.001c-8.836 0-16 7.163-16 15.999s7.164 15.999 16 15.999c8.837 0 16-7.163 16-15.999s-7.163-15.999-16-15.999zM16 4.785c2.924 0 5.293 2.37 5.293 5.292s-2.369 5.292-5.293 5.292c-2.922 0-5.291-2.369-5.291-5.292s2.369-5.292 5.291-5.292zM15.996 27.816c-2.916 0-5.587-1.062-7.646-2.82-0.502-0.428-0.791-1.056-0.791-1.714 0-2.964 2.399-5.336 5.363-5.336h6.158c2.965 0 5.355 2.372 5.355 5.336 0 0.659-0.288 1.285-0.791 1.713-2.059 1.758-4.731 2.82-7.647 2.82z"></path>
</symbol>

<symbol id="up" viewBox="0 0 32 32">
<path style="fill: currentColor" d="M0 16c0 8.837 7.163 16 16 16s16-7.163 16-16-7.163-16-16-16-16 7.163-16 16zM29 16c0 7.18-5.82 13-13 13s-13-5.82-13-13 5.82-13 13-13 13 5.82 13 13z"/>
<path style="fill: currentColor" d="M22.086 20.914l2.829-2.829-8.914-8.914-8.914 8.914 2.828 2.828 6.086-6.086z"/>
</symbol>

<symbol id="icon-sun" viewBox="0 0 32 32">
<path d="M16 26c1.105 0 2 0.895 2 2v2c0 1.105-0.895 2-2 2s-2-0.895-2-2v-2c0-1.105 0.895-2 2-2zM16 6c-1.105 0-2-0.895-2-2v-2c0-1.105 0.895-2 2-2s2 0.895 2 2v2c0 1.105-0.895 2-2 2zM30 14c1.105 0 2 0.895 2 2s-0.895 2-2 2h-2c-1.105 0-2-0.895-2-2s0.895-2 2-2h2zM6 16c0 1.105-0.895 2-2 2h-2c-1.105 0-2-0.895-2-2s0.895-2 2-2h2c1.105 0 2 0.895 2 2zM25.899 23.071l1.414 1.414c0.781 0.781 0.781 2.047 0 2.828s-2.047 0.781-2.828 0l-1.414-1.414c-0.781-0.781-0.781-2.047 0-2.828s2.047-0.781 2.828 0zM6.101 8.929l-1.414-1.414c-0.781-0.781-0.781-2.047 0-2.828s2.047-0.781 2.828 0l1.414 1.414c0.781 0.781 0.781 2.047 0 2.828s-2.047 0.781-2.828 0zM25.899 8.929c-0.781 0.781-2.047 0.781-2.828 0s-0.781-2.047 0-2.828l1.414-1.414c0.781-0.781 2.047-0.781 2.828 0s0.781 2.047 0 2.828l-1.414 1.414zM6.101 23.071c0.781-0.781 2.047-0.781 2.828 0s0.781 2.047 0 2.828l-1.414 1.414c-0.781 0.781-2.047 0.781-2.828 0s-0.781-2.047 0-2.828l1.414-1.414z"></path>
<path d="M16 8c-4.418 0-8 3.582-8 8s3.582 8 8 8c4.418 0 8-3.582 8-8s-3.582-8-8-8zM16 21c-2.761 0-5-2.239-5-5s2.239-5 5-5 5 2.239 5 5-2.239 5-5 5z"></path>
</symbol>

<symbol id="icon-moon" viewBox="0 0 32 32">
<path fill="#a5a5a4" style="fill: var(--color1, #a5a5a4)" d="M16.571 16c0-6.81 4.278-12.635 10.286-14.941-1.776-0.682-3.701-1.059-5.714-1.059-8.822 0-16 7.178-16 16s7.178 16 16 16c2.013 0 3.938-0.377 5.714-1.059-6.008-2.306-10.286-8.131-10.286-14.941z"></path>
</symbol>
<symbol id="icon-autorization-check" viewBox="0 0 32 32" >
<path  d="M16,0C7.164,0,0,7.164,0,16s7.164,16,16,16s16-7.164,16-16S24.836,0,16,0z M13.52,23.383L6.158,16.02l2.828-2.828l4.533,4.535l9.617-9.617l2.828,2.828L13.52,23.383z"/>
</symbol>
</defs>
</svg>
